<svg width="60" height="60" viewBox="0 0 60 60" fill="none" xmlns="http://www.w3.org/2000/svg">
<rect width="60" height="60" fill="white"/>
<path fill-rule="evenodd" clip-rule="evenodd" d="M15.4643 29.7344C15.4643 34.0059 12.0025 37.4688 7.73214 37.4688C3.4618 37.4688 0 34.0059 0 29.7344C0 25.4628 3.4618 22 7.73214 22C12.0025 22 15.4643 25.4628 15.4643 29.7344ZM5.89825 28.6656C5.63108 28.4059 5.28271 28.2643 4.91456 28.2643C4.13268 28.2643 3.48751 28.9132 3.48751 29.721C3.48751 30.5289 4.13268 31.1778 4.91456 31.1778C5.28424 31.1778 5.634 31.035 5.90157 30.773L8.87107 27.7683L8.87401 27.7653L8.87711 27.7623C9.37264 27.2883 10.022 27.0261 10.7044 27.0261C12.1788 27.0261 13.3691 28.2443 13.3691 29.7316C13.3691 31.2188 12.1788 32.437 10.7044 32.437C10.022 32.437 9.37264 32.1749 8.87711 31.7009L8.87484 31.6988L8.86292 31.6868L8.86043 31.6842L8.49691 31.3039L9.36864 30.4169L9.73662 30.8021C10.0015 31.0518 10.3443 31.1882 10.7044 31.1882C11.4863 31.1882 12.1314 30.5393 12.1314 29.7314C12.1314 28.9236 11.4863 28.2747 10.7044 28.2747C10.3433 28.2747 9.99974 28.4118 9.73458 28.6628L6.77158 31.6614L6.77006 31.6629L6.76852 31.6644C6.26967 32.155 5.61062 32.4265 4.91456 32.4265C3.44018 32.4265 2.24986 31.2084 2.24986 29.721C2.24986 28.2337 3.44018 27.0156 4.91456 27.0156C5.61062 27.0156 6.26967 27.2871 6.76852 27.7776L6.76863 27.7777L6.77268 27.7817L6.77739 27.7864L7.07871 28.1102L6.20682 28.9971L5.89825 28.6656Z" fill="url(#paint0_linear_1503_132)"/>
<path d="M18.5295 34.5259H20.7737V31.4344H21.8253L23.454 34.5259H25.9547L24.1722 31.319C23.9541 30.9341 23.8259 30.7674 23.8259 30.7674V30.7417C24.7364 30.2799 25.198 29.2152 25.198 28.2403C25.198 26.9062 24.544 25.9698 23.5053 25.5722C23.1077 25.4182 22.6589 25.3541 21.7227 25.3541H18.5295V34.5259ZM20.7737 29.5103V27.2782H21.5304C22.6589 27.2782 22.9154 27.6887 22.9154 28.3814C22.9154 29.1126 22.4665 29.5103 21.7484 29.5103H20.7737ZM27.2709 34.5259H33.1956V32.6018H29.5151V30.87H32.3108V28.9458H29.5151V27.2782H33.0161V25.3541H27.2709V34.5259ZM34.8101 34.5259H38.1828C40.0038 34.5259 41.671 33.7947 41.671 31.7936C41.671 30.9855 41.2862 30.049 40.2347 29.7283V29.7027C40.9272 29.305 41.2991 28.5225 41.2991 27.7529C41.2991 26.1751 40.0167 25.3541 38.1828 25.3541H34.8101V34.5259ZM37.0543 28.9074V27.2782H38.17C38.7727 27.2782 39.0164 27.6374 39.0164 28.0607C39.0164 28.4969 38.7727 28.9074 38.2085 28.9074H37.0543ZM37.0543 32.6018V30.7032H38.4137C39.0677 30.7032 39.3755 31.1266 39.3755 31.6397C39.3755 32.1528 39.0549 32.6018 38.4008 32.6018H37.0543ZM43.1352 31.1522C43.1352 33.2175 44.6484 34.6799 46.9824 34.6799C49.2907 34.6799 50.804 33.2175 50.804 31.1522V25.3541H48.5598V31.1522C48.5598 32.1143 47.9314 32.6274 46.9696 32.6274C46.0078 32.6274 45.3794 32.1143 45.3794 31.1522V25.3541H43.1352V31.1522ZM54.7293 34.5259H56.9735V30.7674L60 25.3541H57.448L56.4221 27.5605C56.1271 28.189 55.8707 28.8817 55.8707 28.8817H55.845C55.845 28.8817 55.5885 28.189 55.2936 27.5605L54.2548 25.3541H51.7028L54.7293 30.7674V34.5259Z" fill="url(#paint1_linear_1503_132)"/>
<defs>
<linearGradient id="paint0_linear_1503_132" x1="-10.2827" y1="21.9997" x2="63.2509" y2="21.9997" gradientUnits="userSpaceOnUse">
<stop offset="0.132938" stop-color="#335DE9"/>
<stop offset="0.365599" stop-color="#BE2198"/>
<stop offset="0.944413" stop-color="#E1AB5B"/>
</linearGradient>
<linearGradient id="paint1_linear_1503_132" x1="-10.2827" y1="21.9997" x2="63.2509" y2="21.9997" gradientUnits="userSpaceOnUse">
<stop offset="0.132938" stop-color="#335DE9"/>
<stop offset="0.365599" stop-color="#BE2198"/>
<stop offset="0.944413" stop-color="#E1AB5B"/>
</linearGradient>
</defs>
</svg>
