<svg width="40" height="40" viewBox="0 0 40 40" fill="none" xmlns="http://www.w3.org/2000/svg">
<rect width="40" height="40" fill="white"/>
<g clip-path="url(#clip0_1503_158)">
<path fill-rule="evenodd" clip-rule="evenodd" d="M10.3015 20.1563C10.3015 23.004 7.99543 25.3125 5.15075 25.3125C2.30607 25.3125 0 23.004 0 20.1563C0 17.3085 2.30607 15 5.15075 15C7.99543 15 10.3015 17.3085 10.3015 20.1563ZM3.99152 19.5108L3.92911 19.4438C3.75113 19.2706 3.51907 19.1762 3.27382 19.1762C2.75297 19.1762 2.3232 19.6088 2.3232 20.1473C2.3232 20.6859 2.75297 21.1185 3.27382 21.1185C3.52009 21.1185 3.75308 21.0233 3.93132 20.8487L5.90945 18.8455L5.91141 18.8435L5.91347 18.8415C6.24357 18.5255 6.67613 18.3507 7.1307 18.3507C8.11286 18.3507 8.90578 19.1628 8.90578 20.1544C8.90578 21.1459 8.11286 21.958 7.1307 21.958C6.67613 21.958 6.24357 21.7833 5.91347 21.4672L5.91196 21.4658L5.9105 21.4644L5.90573 21.4596L5.90402 21.4579L5.90236 21.4561L5.79487 21.3436L5.6602 21.2026L5.79678 21.0635L6.09548 20.7593L6.2409 20.6113L6.38417 20.7614L6.48603 20.8681C6.66246 21.0345 6.8908 21.1255 7.1307 21.1255C7.65156 21.1255 8.08131 20.6929 8.08131 20.1543C8.08131 19.6158 7.65156 19.1831 7.1307 19.1831C6.8902 19.1831 6.66131 19.2746 6.48467 19.4419L4.51087 21.4409L4.50986 21.4419L4.50884 21.4429C4.17653 21.77 3.7375 21.951 3.27382 21.951C2.29167 21.951 1.49874 21.1389 1.49874 20.1473C1.49874 19.1558 2.29167 18.3437 3.27382 18.3437C3.7375 18.3437 4.17653 18.5247 4.50884 18.8518L4.50891 18.8518L4.51161 18.8545L4.51475 18.8576L4.51775 18.8608L4.58445 18.9325L4.71547 19.0735L4.58063 19.2107L4.28194 19.5148L4.13466 19.6647L3.99152 19.5108Z" fill="#1B2140"/>
<path d="M12.3433 23.3509H13.8382V21.2899H14.5387L15.6237 23.3509H17.2895L16.1021 21.2129C15.9568 20.9564 15.8714 20.8452 15.8714 20.8452V20.8281C16.4779 20.5202 16.7855 19.8104 16.7855 19.1605C16.7855 18.2711 16.3498 17.6468 15.6578 17.3817C15.393 17.2791 15.094 17.2363 14.4704 17.2363H12.3433V23.3509ZM13.8382 20.0071V18.5191H14.3423C15.094 18.5191 15.2649 18.7928 15.2649 19.2546C15.2649 19.742 14.9659 20.0071 14.4875 20.0071H13.8382ZM18.1663 23.3509H22.1131V22.0681H19.6613V20.9136H21.5236V19.6308H19.6613V18.5191H21.9935V17.2363H18.1663V23.3509ZM23.1885 23.3509H25.4353C26.6483 23.3509 27.7589 22.8634 27.7589 21.5293C27.7589 20.9906 27.5026 20.3663 26.8021 20.1525V20.1354C27.2634 19.8703 27.5112 19.3486 27.5112 18.8355C27.5112 17.7836 26.6569 17.2363 25.4353 17.2363H23.1885V23.3509ZM24.6835 19.6052V18.5191H25.4267C25.8282 18.5191 25.9906 18.7586 25.9906 19.0408C25.9906 19.3315 25.8282 19.6052 25.4524 19.6052H24.6835ZM24.6835 22.0681V20.8024H25.589C26.0247 20.8024 26.2297 21.0847 26.2297 21.4267C26.2297 21.7688 26.0162 22.0681 25.5805 22.0681H24.6835ZM28.7343 21.1018C28.7343 22.4786 29.7423 23.4535 31.2971 23.4535C32.8348 23.4535 33.8428 22.4786 33.8428 21.1018V17.2363H32.3478V21.1018C32.3478 21.7431 31.9292 22.0852 31.2885 22.0852C30.6478 22.0852 30.2292 21.7431 30.2292 21.1018V17.2363H28.7343V21.1018ZM36.4577 23.3509H37.9527V20.8452L39.9687 17.2363H38.2687L37.5853 18.7072C37.3888 19.1263 37.218 19.5881 37.218 19.5881H37.2009C37.2009 19.5881 37.03 19.1263 36.8336 18.7072L36.1416 17.2363H34.4416L36.4577 20.8452V23.3509Z" fill="#1B2140"/>
</g>
<defs>
<clipPath id="clip0_1503_158">
<rect width="40" height="10.3125" fill="white" transform="translate(0 15)"/>
</clipPath>
</defs>
</svg>
