<svg width="60" height="60" viewBox="0 0 60 60" fill="none" xmlns="http://www.w3.org/2000/svg">
<path fill-rule="evenodd" clip-rule="evenodd" d="M60 30C60 46.5685 46.5685 60 30 60C13.4315 60 0 46.5685 0 30C0 13.4315 13.4315 0 30 0C46.5685 0 60 13.4315 60 30ZM22.8847 25.8546C21.848 24.8473 20.4964 24.2979 19.068 24.2979C16.0344 24.2979 13.5312 26.815 13.5312 29.9482C13.5312 33.0817 16.0344 35.5987 19.068 35.5987C20.5024 35.5987 21.8594 35.0447 22.8975 34.0288L34.4189 22.3739L34.4303 22.3622L34.4423 22.3508C36.365 20.5123 38.8844 19.4953 41.532 19.4953C47.2525 19.4953 51.8707 24.2202 51.8707 29.9892C51.8707 35.7579 47.2525 40.483 41.532 40.483C38.8844 40.483 36.365 39.4662 34.4423 37.6276L34.4336 37.6194L34.3873 37.5732L34.3777 37.5629L32.9672 36.0878L36.3495 32.6473L37.7772 34.1415C38.8048 35.11 40.1347 35.6391 41.532 35.6391C44.5657 35.6391 47.0687 33.122 47.0687 29.9886C47.0687 26.8554 44.5657 24.3383 41.532 24.3383C40.1312 24.3383 38.798 24.8702 37.7693 25.8438L26.2731 37.4745L26.2672 37.4804L26.2612 37.4862C24.3257 39.3893 21.7687 40.4423 19.068 40.4423C13.3476 40.4423 8.72924 35.7173 8.72924 29.9482C8.72924 24.1793 13.3476 19.4543 19.068 19.4543C21.7687 19.4543 24.3257 20.5074 26.2612 22.4102L26.2617 22.4106L26.2774 22.4261L26.2957 22.4441L27.4647 23.7002L24.0819 27.1402L22.8847 25.8546Z" fill="url(#paint0_linear_1503_146)"/>
<defs>
<linearGradient id="paint0_linear_1503_146" x1="-39.8959" y1="-0.0013555" x2="245.408" y2="-0.00135529" gradientUnits="userSpaceOnUse">
<stop offset="0.132938" stop-color="#335DE9"/>
<stop offset="0.365599" stop-color="#BE2198"/>
<stop offset="0.944413" stop-color="#E1AB5B"/>
</linearGradient>
</defs>
</svg>
