<svg width="60" height="60" viewBox="0 0 60 60" fill="none" xmlns="http://www.w3.org/2000/svg">
<rect width="60" height="60" fill="white"/>
<g clip-path="url(#clip0_1503_135)">
<path fill-rule="evenodd" clip-rule="evenodd" d="M15.4523 29.7344C15.4523 34.0059 11.9931 37.4688 7.72613 37.4688C3.45911 37.4688 0 34.0059 0 29.7344C0 25.4628 3.45911 22 7.72613 22C11.9931 22 15.4523 25.4628 15.4523 29.7344ZM5.98728 28.7663L5.89367 28.6656C5.6267 28.4059 5.2786 28.2643 4.91074 28.2643C4.12946 28.2643 3.48479 28.9132 3.48479 29.721C3.48479 30.5289 4.12946 31.1778 4.91074 31.1778C5.28013 31.1778 5.62961 31.035 5.89697 30.773L8.86417 27.7683L8.86711 27.7653L8.8702 27.7623C9.36535 27.2883 10.0142 27.0261 10.6961 27.0261C12.1693 27.0261 13.3587 28.2443 13.3587 29.7316C13.3587 31.2188 12.1693 32.437 10.6961 32.437C10.0142 32.437 9.36535 32.1749 8.8702 31.7009L8.86794 31.6988L8.86575 31.6966L8.85859 31.6894L8.85603 31.6868L8.85354 31.6842L8.69231 31.5154L8.4903 31.3039L8.69518 31.0952L9.14322 30.639L9.36136 30.4169L9.57626 30.6421L9.72905 30.8021C9.99369 31.0518 10.3362 31.1882 10.6961 31.1882C11.4773 31.1882 12.122 30.5393 12.122 29.7314C12.122 28.9236 11.4773 28.2747 10.6961 28.2747C10.3353 28.2747 9.99196 28.4118 9.72701 28.6628L6.76631 31.6614L6.7648 31.6629L6.76326 31.6644C6.26479 32.155 5.60625 32.4265 4.91074 32.4265C3.4375 32.4265 2.24811 31.2084 2.24811 29.721C2.24811 28.2337 3.4375 27.0156 4.91074 27.0156C5.60625 27.0156 6.26479 27.2871 6.76326 27.7776L6.76336 27.7777L6.76741 27.7817L6.77212 27.7864L6.77663 27.7912L6.87668 27.8988L7.0732 28.1102L6.87095 28.3161L6.42291 28.7722L6.20199 28.9971L5.98728 28.7663Z" fill="#1B2140"/>
<path d="M18.5151 34.5263H20.7576V31.4348H21.8084L23.4357 34.5263H25.9346L24.1534 31.3194C23.9355 30.9346 23.8073 30.7678 23.8073 30.7678V30.7421C24.7171 30.2803 25.1785 29.2156 25.1785 28.2407C25.1785 26.9066 24.5249 25.9702 23.487 25.5726C23.0898 25.4186 22.6413 25.3545 21.7058 25.3545H18.5151V34.5263ZM20.7576 29.5107V27.2787H21.5136C22.6413 27.2787 22.8975 27.6891 22.8975 28.3818C22.8975 29.113 22.4491 29.5107 21.7315 29.5107H20.7576ZM27.2497 34.5263H33.1698V32.6022H29.4922V30.8704H32.2857V28.9463H29.4922V27.2787H32.9904V25.3545H27.2497V34.5263ZM34.783 34.5263H38.1532C39.9727 34.5263 41.6386 33.7951 41.6386 31.794C41.6386 30.9859 41.2542 30.0494 40.2034 29.7288V29.7031C40.8954 29.3054 41.267 28.5229 41.267 27.7533C41.267 26.1755 39.9856 25.3545 38.1532 25.3545H34.783V34.5263ZM37.0255 28.9078V27.2787H38.1403C38.7426 27.2787 38.9861 27.6378 38.9861 28.0611C38.9861 28.4973 38.7426 28.9078 38.1788 28.9078H37.0255ZM37.0255 32.6022V30.7037H38.3838C39.0373 30.7037 39.3449 31.127 39.3449 31.6401C39.3449 32.1532 39.0245 32.6022 38.371 32.6022H37.0255ZM43.1016 31.1526C43.1016 33.2179 44.6137 34.6803 46.9459 34.6803C49.2524 34.6803 50.7645 33.2179 50.7645 31.1526V25.3545H48.522V31.1526C48.522 32.1147 47.8941 32.6278 46.9331 32.6278C45.972 32.6278 45.3441 32.1147 45.3441 31.1526V25.3545H43.1016V31.1526ZM54.6868 34.5263H56.9292V30.7678L59.9533 25.3545H57.4034L56.3782 27.5609C56.0835 28.1894 55.8272 28.8821 55.8272 28.8821H55.8016C55.8016 28.8821 55.5453 28.1894 55.2506 27.5609L54.2126 25.3545H51.6626L54.6868 30.7678V34.5263Z" fill="#1B2140"/>
</g>
<defs>
<clipPath id="clip0_1503_135">
<rect width="60" height="15.4688" fill="white" transform="translate(0 22)"/>
</clipPath>
</defs>
</svg>
