<svg width="40" height="40" viewBox="0 0 40 40" fill="none" xmlns="http://www.w3.org/2000/svg">
<rect width="40" height="40" fill="white"/>
<path fill-rule="evenodd" clip-rule="evenodd" d="M10.3095 20.1562C10.3095 23.004 8.00165 25.3125 5.15476 25.3125C2.30787 25.3125 0 23.004 0 20.1562C0 17.3085 2.30787 15 5.15476 15C8.00165 15 10.3095 17.3085 10.3095 20.1562ZM3.93217 19.4438C3.75405 19.2706 3.5218 19.1762 3.27637 19.1762C2.75512 19.1762 2.325 19.6088 2.325 20.1473C2.325 20.6859 2.75512 21.1185 3.27637 21.1185C3.52283 21.1185 3.756 21.0233 3.93438 20.8487L5.91405 18.8455L5.91601 18.8435L5.91807 18.8415C6.24843 18.5255 6.68133 18.3507 7.13625 18.3507C8.11918 18.3507 8.91271 19.1628 8.91271 20.1544C8.91271 21.1459 8.11918 21.958 7.13625 21.958C6.68133 21.958 6.24843 21.7833 5.91807 21.4672L5.91656 21.4658L5.90862 21.4579L5.90696 21.4561L5.66461 21.2026L6.24576 20.6113L6.49108 20.8681C6.66765 21.0345 6.89617 21.1255 7.13625 21.1255C7.65751 21.1255 8.0876 20.6929 8.0876 20.1543C8.0876 19.6158 7.65751 19.1831 7.13625 19.1831C6.89556 19.1831 6.66649 19.2746 6.48972 19.4419L4.51439 21.4409L4.51337 21.4419L4.51235 21.4429C4.17978 21.77 3.74041 21.951 3.27637 21.951C2.29345 21.951 1.49991 21.1389 1.49991 20.1473C1.49991 19.1558 2.29345 18.3437 3.27637 18.3437C3.74041 18.3437 4.17978 18.5247 4.51235 18.8518L4.51242 18.8518L4.51512 18.8545L4.51826 18.8576L4.71914 19.0735L4.13788 19.6647L3.93217 19.4438Z" fill="url(#paint0_linear_1503_150)"/>
<path d="M12.353 23.3506H13.8492V21.2896H14.5502L15.636 23.3506H17.3032L16.1148 21.2127C15.9694 20.9561 15.8839 20.8449 15.8839 20.8449V20.8278C16.4909 20.52 16.7987 19.8102 16.7987 19.1602C16.7987 18.2708 16.3627 17.6465 15.6702 17.3814C15.4051 17.2788 15.1059 17.2361 14.4818 17.2361H12.353V23.3506ZM13.8492 20.0068V18.5188H14.3536C15.1059 18.5188 15.2769 18.7925 15.2769 19.2543C15.2769 19.7417 14.9777 20.0068 14.4989 20.0068H13.8492ZM18.1806 23.3506H22.1304V22.0678H19.6768V20.9133H21.5405V19.6306H19.6768V18.5188H22.0107V17.2361H18.1806V23.3506ZM23.2067 23.3506H25.4552C26.6692 23.3506 27.7806 22.8632 27.7806 21.5291C27.7806 20.9903 27.5242 20.366 26.8231 20.1522V20.1351C27.2848 19.87 27.5327 19.3484 27.5327 18.8352C27.5327 17.7834 26.6778 17.2361 25.4552 17.2361H23.2067V23.3506ZM24.7029 19.6049V18.5188H25.4467C25.8485 18.5188 26.0109 18.7583 26.0109 19.0405C26.0109 19.3313 25.8485 19.6049 25.4723 19.6049H24.7029ZM24.7029 22.0678V20.8022H25.6091C26.0451 20.8022 26.2503 21.0844 26.2503 21.4264C26.2503 21.7685 26.0366 22.0678 25.6006 22.0678H24.7029ZM28.7568 21.1015C28.7568 22.4783 29.7656 23.4532 31.3216 23.4532C32.8605 23.4532 33.8693 22.4783 33.8693 21.1015V17.2361H32.3732V21.1015C32.3732 21.7429 31.9542 22.0849 31.313 22.0849C30.6718 22.0849 30.2529 21.7429 30.2529 21.1015V17.2361H28.7568V21.1015ZM36.4862 23.3506H37.9824V20.8449L40 17.2361H38.2987L37.6147 18.707C37.4181 19.126 37.2471 19.5878 37.2471 19.5878H37.23C37.23 19.5878 37.059 19.126 36.8624 18.707L36.1699 17.2361H34.4686L36.4862 20.8449V23.3506Z" fill="url(#paint1_linear_1503_150)"/>
<defs>
<linearGradient id="paint0_linear_1503_150" x1="-6.85512" y1="14.9998" x2="42.1673" y2="14.9998" gradientUnits="userSpaceOnUse">
<stop offset="0.132938" stop-color="#335DE9"/>
<stop offset="0.365599" stop-color="#BE2198"/>
<stop offset="0.944413" stop-color="#E1AB5B"/>
</linearGradient>
<linearGradient id="paint1_linear_1503_150" x1="-6.85512" y1="14.9998" x2="42.1673" y2="14.9998" gradientUnits="userSpaceOnUse">
<stop offset="0.132938" stop-color="#335DE9"/>
<stop offset="0.365599" stop-color="#BE2198"/>
<stop offset="0.944413" stop-color="#E1AB5B"/>
</linearGradient>
</defs>
</svg>
