<svg width="40" height="40" viewBox="0 0 40 40" fill="none" xmlns="http://www.w3.org/2000/svg">
<path fill-rule="evenodd" clip-rule="evenodd" d="M40 20C40 31.0457 31.0457 40 20 40C8.9543 40 0 31.0457 0 20C0 8.9543 8.9543 0 20 0C31.0457 0 40 8.9543 40 20ZM15.2564 17.2364C14.5654 16.5648 13.6643 16.1986 12.712 16.1986C10.6896 16.1986 9.0208 17.8766 9.0208 19.9655C9.0208 22.0544 10.6896 23.7325 12.712 23.7325C13.6682 23.7325 14.5729 23.3631 15.265 22.6859L22.946 14.9159L22.9536 14.9081L22.9616 14.9005C24.2433 13.6748 25.9229 12.9968 27.688 12.9968C31.5017 12.9968 34.5805 16.1468 34.5805 19.9928C34.5805 23.8386 31.5017 26.9887 27.688 26.9887C25.9229 26.9887 24.2433 26.3108 22.9616 25.0851L22.9557 25.0796L22.9249 25.0488L22.9184 25.0419L21.9781 24.0585L24.233 21.7649L25.1848 22.761C25.8699 23.4066 26.7565 23.7594 27.688 23.7594C29.7104 23.7594 31.3791 22.0814 31.3791 19.9924C31.3791 17.9036 29.7104 16.2255 27.688 16.2255C26.7541 16.2255 25.8654 16.5801 25.1795 17.2292L17.5154 24.983L17.5115 24.9869L17.5075 24.9908C16.2172 26.2595 14.5124 26.9616 12.712 26.9616C8.89838 26.9616 5.81949 23.8115 5.81949 19.9655C5.81949 16.1196 8.89838 12.9695 12.712 12.9695C14.5124 12.9695 16.2172 13.6716 17.5075 14.9401L17.5078 14.9404L17.5182 14.9507L17.5304 14.9627L18.3098 15.8001L16.0546 18.0934L15.2564 17.2364Z" fill="url(#paint0_linear_1503_148)"/>
<defs>
<linearGradient id="paint0_linear_1503_148" x1="-26.5972" y1="-0.000903662" x2="163.605" y2="-0.000903527" gradientUnits="userSpaceOnUse">
<stop offset="0.132938" stop-color="#335DE9"/>
<stop offset="0.365599" stop-color="#BE2198"/>
<stop offset="0.944413" stop-color="#E1AB5B"/>
</linearGradient>
</defs>
</svg>
