<svg width="60" height="60" viewBox="0 0 60 60" fill="none" xmlns="http://www.w3.org/2000/svg">
<g clip-path="url(#clip0_1503_147)">
<path fill-rule="evenodd" clip-rule="evenodd" d="M59.4318 29.7159C59.4318 46.1275 46.1275 59.4318 29.7159 59.4318C13.3043 59.4318 0 46.1275 0 29.7159C0 13.3043 13.3043 0 29.7159 0C46.1275 0 59.4318 13.3043 59.4318 29.7159ZM23.028 25.9963L22.6679 25.6097C21.6411 24.6119 20.3023 24.0678 18.8874 24.0678C15.8825 24.0678 13.4031 26.561 13.4031 29.6646C13.4031 32.7684 15.8825 35.2616 18.8874 35.2616C20.3082 35.2616 21.6524 34.7128 22.6807 33.7065L34.093 22.162L34.1043 22.1504L34.1162 22.1391C36.0206 20.318 38.5161 19.3106 41.1387 19.3106C46.805 19.3106 51.3795 23.9908 51.3795 29.7052C51.3795 35.4193 46.805 40.0996 41.1387 40.0996C38.5161 40.0996 36.0206 39.0925 34.1162 37.2713L34.1075 37.2631L34.0991 37.2547L34.0715 37.2272L34.0616 37.2173L34.0521 37.2072L33.432 36.5587L32.655 35.746L33.443 34.9444L35.1662 33.1913L36.0052 32.3381L36.8318 33.2032L37.4194 33.8181C38.4373 34.7774 39.7546 35.3016 41.1387 35.3016C44.1436 35.3016 46.6229 32.8084 46.6229 29.7046C46.6229 26.601 44.1436 24.1078 41.1387 24.1078C39.7512 24.1078 38.4306 24.6346 37.4116 25.599L26.0243 37.1196L26.0184 37.1254L26.0125 37.1312C24.0953 39.0162 21.5625 40.0593 18.8874 40.0593C13.2212 40.0593 8.64657 35.379 8.64657 29.6646C8.64657 23.9503 13.2212 19.27 18.8874 19.27C21.5625 19.27 24.0953 20.3131 26.0125 22.198L26.0129 22.1984L26.0285 22.2137L26.0466 22.2315L26.064 22.2502L26.4488 22.6636L27.2046 23.4757L26.4267 24.2667L24.7035 26.0191L23.8538 26.8831L23.028 25.9963Z" fill="#1B2140"/>
</g>
<defs>
<clipPath id="clip0_1503_147">
<rect width="60" height="60" fill="white"/>
</clipPath>
</defs>
</svg>
