<svg width="40" height="40" viewBox="0 0 40 40" fill="none" xmlns="http://www.w3.org/2000/svg">
<g clip-path="url(#clip0_1503_156)">
<path fill-rule="evenodd" clip-rule="evenodd" d="M39.6212 19.8106C39.6212 30.7516 30.7516 39.6212 19.8106 39.6212C8.8695 39.6212 0 30.7516 0 19.8106C0 8.8695 8.8695 0 19.8106 0C30.7516 0 39.6212 8.8695 39.6212 19.8106ZM15.352 17.3309L15.112 17.0731C14.4274 16.408 13.5349 16.0452 12.5916 16.0452C10.5884 16.0452 8.93537 17.7073 8.93537 19.7764C8.93537 21.8456 10.5884 23.5077 12.5916 23.5077C13.5388 23.5077 14.4349 23.1419 15.1204 22.471L22.7286 14.7747L22.7362 14.7669L22.7441 14.7594C24.0137 13.5453 25.6774 12.8738 27.4258 12.8738C31.2033 12.8738 34.253 15.9939 34.253 19.8034C34.253 23.6129 31.2033 26.7331 27.4258 26.7331C25.6774 26.7331 24.0137 26.0617 22.7441 24.8475L22.7383 24.8421L22.7327 24.8365L22.7143 24.8181L22.7078 24.8116L22.7014 24.8048L22.288 24.3724L21.77 23.8307L22.2953 23.2963L23.4441 22.1276L24.0035 21.5588L24.5545 22.1355L24.9463 22.5454C25.6249 23.185 26.5031 23.5344 27.4258 23.5344C29.4291 23.5344 31.0819 21.8722 31.0819 19.8031C31.0819 17.734 29.4291 16.0719 27.4258 16.0719C26.5008 16.0719 25.6204 16.4231 24.941 17.066L17.3495 24.7464L17.3456 24.7503L17.3417 24.7542C16.0636 26.0108 14.375 26.7062 12.5916 26.7062C8.81411 26.7062 5.76438 23.586 5.76438 19.7764C5.76438 15.9669 8.81411 12.8467 12.5916 12.8467C14.375 12.8467 16.0636 13.5421 17.3417 14.7986L17.342 14.7989L17.3523 14.8091L17.3644 14.821L17.376 14.8334L17.6325 15.1091L18.1364 15.6505L17.6178 16.1778L16.469 17.3461L15.9026 17.9221L15.352 17.3309Z" fill="#1B2140"/>
</g>
<defs>
<clipPath id="clip0_1503_156">
<rect width="40" height="40" fill="white"/>
</clipPath>
</defs>
</svg>
